<?xml version="1.0" encoding="UTF-8" standalone="no"?>
<!-- Created with Inkscape (http://www.inkscape.org/) -->

<svg
   width="240mm"
   height="120mm"
   viewBox="0 0 240 120"
   version="1.1"
   id="svg8"
   inkscape:version="1.1 (c68e22c387, 2021-05-23)"
   sodipodi:docname="template.svg"
   xmlns:inkscape="http://www.inkscape.org/namespaces/inkscape"
   xmlns:sodipodi="http://sodipodi.sourceforge.net/DTD/sodipodi-0.dtd"
   xmlns="http://www.w3.org/2000/svg"
   xmlns:svg="http://www.w3.org/2000/svg"
   xmlns:rdf="http://www.w3.org/1999/02/22-rdf-syntax-ns#"
   xmlns:cc="http://creativecommons.org/ns#"
   xmlns:dc="http://purl.org/dc/elements/1.1/">
  <defs
     id="defs2" />
  <sodipodi:namedview
     id="base"
     pagecolor="#ffffff"
     bordercolor="#666666"
     borderopacity="1.0"
     inkscape:pageopacity="0.0"
     inkscape:pageshadow="2"
     inkscape:zoom="0.99437388"
     inkscape:cx="284.09837"
     inkscape:cy="182.52692"
     inkscape:document-units="mm"
     inkscape:current-layer="layer1"
     showgrid="false"
     showborder="true"
     width="200mm"
     showguides="true"
     inkscape:guide-bbox="true"
     inkscape:window-width="1858"
     inkscape:window-height="1057"
     inkscape:window-x="-8"
     inkscape:window-y="-8"
     inkscape:window-maximized="1"
     inkscape:pagecheckerboard="0">
    <inkscape:grid
       type="xygrid"
       id="grid815"
       units="mm"
       spacingx="10"
       spacingy="10"
       empspacing="4"
       dotted="false" />
  </sodipodi:namedview>
  <metadata
     id="metadata5">
    <rdf:RDF>
      <cc:Work
         rdf:about="">
        <dc:format>image/svg+xml</dc:format>
        <dc:type
           rdf:resource="http://purl.org/dc/dcmitype/StillImage" />
        <dc:title />
      </cc:Work>
    </rdf:RDF>
  </metadata>
  <g
     inkscape:label="Layer 1"
     inkscape:groupmode="layer"
     id="layer1"
     transform="translate(0,-177)">
    <path
       style="fill:none;stroke:#000000;stroke-width:0.264583px;stroke-linecap:butt;stroke-linejoin:miter;stroke-opacity:1"
       d="m 58.271592,235.80375 c 13.015121,4.23256 26.673476,7.25732 40.44421,6.65201 4.188068,-0.18409 8.425698,-0.36769 12.505778,-1.3304 5.85553,-1.38164 14.70225,-5.41277 19.42386,-9.57889 6.0828,-5.36718 7.77841,-12.72008 9.57889,-20.22211 0.80491,-3.35379 2.25907,-8.65545 1.06432,-12.23969 -1.35971,-4.07914 -11.45884,-6.72683 -14.90049,-6.65201 -12.9461,0.28144 -9.96605,18.89745 -16.2309,26.60803 -1.18908,1.46348 -2.76885,2.56745 -4.25729,3.72513 -5.924521,4.60796 -13.772883,8.30593 -18.625621,14.10225 -3.829106,4.57366 -5.922018,11.73936 -0.532162,16.2309 1.919944,1.59996 4.328803,2.53778 6.652008,3.45905 2.842943,1.12737 5.781726,2.06102 8.780655,2.6608 4.56329,0.91266 9.20063,1.45234 13.83617,1.86256 19.86249,1.75775 42.55207,1.48332 62.2628,-1.59648 8.79011,-1.37345 22.38706,-3.13088 29.53492,-9.31281 10.6139,-9.17959 -2.13539,-23.31269 -11.17538,-27.40627 -10.73353,-4.86047 -22.50977,1.323 -32.4618,4.78944 -4.23785,1.47611 -8.48855,2.91876 -12.77185,4.25729 -11.67942,3.64981 -24.30691,5.96489 -35.1226,11.97361 -4.86084,2.70047 -10.41141,7.41397 -11.97362,13.03794 -0.0979,0.35235 -0.0265,0.8449 0.26608,1.06432 1.4187,1.06402 5.18641,1.06432 6.91809,1.06432"
       id="path41" />
    <path
       style="fill:none;stroke:#000000;stroke-width:0.264583px;stroke-linecap:butt;stroke-linejoin:miter;stroke-opacity:1"
       d="m 83.549224,274.91756 c -2.926884,-0.97563 -6.085781,-1.42482 -8.780653,-2.92688 -5.65055,-3.14949 -13.570095,-11.57062 -13.570095,-18.35955 0,-10.3365 10.487787,-13.77949 18.359543,-13.30401 10.234472,0.61819 28.561671,1.90878 36.985161,11.70753 3.16319,3.67962 5.69676,14.39479 1.86257,18.62563 -3.46265,3.82085 -8.7841,5.88594 -13.83618,6.91809 -3.61439,0.73842 -7.374709,-0.80626 -10.909294,-1.86257 -8.315687,-2.48514 -10.944391,-4.30561 -17.295222,-7.98241"
       id="path43" />
    <path
       style="fill:none;stroke:#000000;stroke-width:0.264583px;stroke-linecap:butt;stroke-linejoin:miter;stroke-opacity:1"
       d="m 195.56904,281.03741 c -6.95419,-0.0573 -14.03852,-2.03689 -20.75426,-3.45904 -3.81193,-0.80724 -7.73038,-1.20718 -11.44146,-2.39473 -8.91026,-2.85128 -15.5273,-5.3267 -22.35075,-11.17537 -1.52672,-1.30863 -2.92547,-2.8182 -3.9912,-4.52337 -1.366,-2.1856 -2.57046,-8.00956 0.26608,-9.84497 8.97815,-5.80939 17.48049,-1.96723 26.34195,1.06432 6.33801,2.16827 10.89376,6.65296 11.70754,13.5701 0.28057,2.38483 0.24267,4.91133 -0.53216,7.18417 -1.53537,4.50375 -5.83885,6.22902 -10.11106,6.91809 -16.24314,2.61986 -37.28848,-6.61297 -47.09622,-19.68995"
       id="path45" />
    <path
       style="fill:none;stroke:#000000;stroke-width:0.264583px;stroke-linecap:butt;stroke-linejoin:miter;stroke-opacity:1"
       d="m 89.935152,237.9324 c -0.301344,-6.12918 -1.157967,-11.2403 0.79824,-17.29523 2.849647,-8.82033 12.478328,-21.89596 20.222108,-26.87411 5.3134,-3.41576 13.6759,-5.22997 19.95602,-5.05553 3.14834,0.0875 6.41572,0.36096 9.31281,1.59649 11.45,4.88308 12.90936,12.39544 15.96482,25.01155 3.12283,12.89426 0.42231,26.14194 -5.85376,37.51732 -1.36095,2.46672 -4.50241,7.04065 -7.45025,8.51457"
       id="path47" />
  </g>
</svg>
