<?xml version="1.0" encoding="UTF-8" standalone="no"?>
<!-- Created with Inkscape (http://www.inkscape.org/) -->

<svg
   width="240mm"
   height="120mm"
   viewBox="0 0 240 120"
   version="1.1"
   id="svg8"
   inkscape:version="1.1 (c68e22c387, 2021-05-23)"
   sodipodi:docname="figure1.svg"
   xmlns:inkscape="http://www.inkscape.org/namespaces/inkscape"
   xmlns:sodipodi="http://sodipodi.sourceforge.net/DTD/sodipodi-0.dtd"
   xmlns="http://www.w3.org/2000/svg"
   xmlns:svg="http://www.w3.org/2000/svg"
   xmlns:rdf="http://www.w3.org/1999/02/22-rdf-syntax-ns#"
   xmlns:cc="http://creativecommons.org/ns#"
   xmlns:dc="http://purl.org/dc/elements/1.1/">
  <defs
     id="defs2" />
  <sodipodi:namedview
     id="base"
     pagecolor="#ffffff"
     bordercolor="#666666"
     borderopacity="1.0"
     inkscape:pageopacity="0.0"
     inkscape:pageshadow="2"
     inkscape:zoom="1.4141897"
     inkscape:cx="429.92816"
     inkscape:cy="251.38069"
     inkscape:document-units="mm"
     inkscape:current-layer="layer1"
     showgrid="false"
     showborder="true"
     width="200mm"
     showguides="true"
     inkscape:guide-bbox="true"
     inkscape:window-width="1839"
     inkscape:window-height="1051"
     inkscape:window-x="72"
     inkscape:window-y="-9"
     inkscape:window-maximized="1"
     inkscape:pagecheckerboard="0">
    <inkscape:grid
       type="xygrid"
       id="grid815"
       units="mm"
       spacingx="10"
       spacingy="10"
       empspacing="4"
       dotted="false" />
  </sodipodi:namedview>
  <metadata
     id="metadata5">
    <rdf:RDF>
      <cc:Work
         rdf:about="">
        <dc:format>image/svg+xml</dc:format>
        <dc:type
           rdf:resource="http://purl.org/dc/dcmitype/StillImage" />
        <dc:title />
      </cc:Work>
    </rdf:RDF>
  </metadata>
  <g
     inkscape:label="Layer 1"
     inkscape:groupmode="layer"
     id="layer1"
     transform="translate(0,-177)">
    <path
       style="fill:none;stroke:#000000;stroke-width:0.264583px;stroke-linecap:butt;stroke-linejoin:miter;stroke-opacity:1"
       d="m 50.3277,214.04418 c -1.003441,3.99167 -0.453957,7.66541 0,11.59969 0.587298,5.08993 0.666638,10.23396 0.935458,15.34153 0.05135,0.97569 -0.108178,2.01988 0,2.99347 0.0284,0.25556 0.187092,0.49123 0.187092,0.74837 0,0.19721 -0.187092,0.36406 -0.187092,0.56127 0,0.60865 0.187092,1.24296 0.187092,1.87092 0,0.12904 -0.354738,1.68383 -0.187092,1.68383 0.06236,0 0,-0.12473 0,-0.18709 0,-0.0755 -0.187092,-0.85993 -0.187092,-0.93546 0,-0.19721 0.13926,-0.36996 0.187092,-0.56128 0.03025,-0.121 -0.124727,-0.37418 0,-0.37418 0.01114,0 0.374184,0.91499 0.374184,0.93546 0,0.15997 -1.110938,0.22216 0.561274,0.37418 4.001185,0.36374 7.991462,-0.38813 11.973877,-0.56127 1.448517,-0.063 3.476027,0.0271 4.864389,0.37418 0.169232,0.0423 1.0928,-0.009 1.12255,-0.18709 0.325736,-1.95443 -0.978339,-6.99258 -1.309643,-8.98041 -0.103036,-0.61822 -0.09412,-1.2511 -0.187092,-1.87092 -0.557834,-3.7189 -1.692952,-7.3114 -2.245103,-11.03842 -0.287819,-1.94277 -0.112064,-3.84919 -0.18709,-5.79984 -0.114215,-2.96956 -0.72505,-5.84757 -0.93546,-8.79332 -0.06379,-0.89309 -0.01598,-1.57659 -0.187093,-2.43219 -0.03669,-0.18346 0.08367,-0.39394 0,-0.56128 -0.03944,-0.0789 -0.187089,-0.0989 -0.187089,-0.18709 0,-0.0624 0.187089,-0.0624 0.187089,0 0,0.68547 -2.644425,1.08206 -2.806377,1.12255 -1.368242,0.34206 -2.726645,0.87737 -4.116019,1.12255 -2.205043,0.38913 -1.060011,-0.0125 -2.99347,0.37419 -0.787566,0.15751 -1.778823,0.56127 -2.619285,0.56127"
       id="path125" />
    <path
       style="fill:none;stroke:#000000;stroke-width:0.264583px;stroke-linecap:butt;stroke-linejoin:miter;stroke-opacity:1"
       d="m 59.495197,231.63081 c 0,-5.74536 0.158401,-2.53202 -0.187092,-5.98694 -0.0062,-0.062 0.03625,-0.23784 0,-0.18709 -0.912228,1.27712 -1.919105,2.52857 -2.619285,3.92893"
       id="path127" />
    <path
       style="fill:none;stroke:#000000;stroke-width:0.264583px;stroke-linecap:butt;stroke-linejoin:miter;stroke-opacity:1"
       d="m 59.495197,231.63081 c -4.401746,4.0816 -7.077223,-8.44091 -3.554743,-9.54168 0.657476,-0.20546 1.370237,-0.14888 2.058008,-0.18709 4.687462,-0.26042 4.92547,3.99578 3.928931,7.48367 -0.398833,1.39591 -0.533279,2.5037 -1.496735,3.55474 -1.083919,1.18246 -2.466123,1.72357 -3.92893,0.74837 -1.00752,-0.67168 1.923301,-1.49145 2.993469,-2.05801"
       id="path129" />
    <path
       style="fill:none;stroke:#000000;stroke-width:0.264583px;stroke-linecap:butt;stroke-linejoin:miter;stroke-opacity:1"
       d="m 212.91049,224.8955 -0.37419,0.37419"
       id="path131" />
    <path
       style="fill:none;stroke:#000000;stroke-width:0.264583px;stroke-linecap:butt;stroke-linejoin:miter;stroke-opacity:1"
       d="m 144.99616,213.85709 c -0.46805,7.85448 1.2793,15.5657 1.68382,23.38648 0.0902,1.74385 0.13393,3.49752 0,5.23857 -0.0244,0.31705 -0.18709,0.61746 -0.18709,0.93545 0,0.13946 0.1353,0.24471 0.18709,0.37419 0.0733,0.18311 0.0293,0.44295 0.1871,0.56127 1.34528,1.00896 3.98062,1.13548 5.42566,1.49674 0.82291,0.20573 1.60928,0.54264 2.43219,0.74837 5.41526,1.35381 10.9103,1.49673 16.46408,1.49673 0.56555,0 2.59791,0.21915 2.99347,-0.37418 2.03814,-3.0572 1.30479,-7.01465 1.12255,-10.47714 -0.0951,-1.80713 -0.18709,-3.61604 -0.18709,-5.42567 0,-6.21874 0.84548,-12.32668 -0.18709,-18.52209 -0.5701,-3.42059 -1.54498,-4.79952 -4.86439,-3.55474 -3.83383,1.43769 -7.9202,3.22394 -11.97387,3.92893 -5.11872,0.89021 -6.1847,0.54024 -11.5997,0.18709 -1.43151,-0.0934 -3.10858,-0.10073 -4.4902,-0.56128"
       id="path133" />
    <path
       style="fill:none;stroke:#000000;stroke-width:0.264583px;stroke-linecap:butt;stroke-linejoin:miter;stroke-opacity:1"
       d="m 157.7184,229.5728 c 1.06019,-0.686 1.91909,-2.00067 3.18056,-2.05801 1.22243,-0.0556 1.83367,6.2189 -0.74836,6.73531 -0.32932,0.0659 0.052,-0.8407 0.37418,-0.93546 0.27255,-0.0802 7.96355,-0.47988 6.73531,0.74836"
       id="path135" />
    <path
       style="fill:none;stroke:#000000;stroke-width:0.264583px;stroke-linecap:butt;stroke-linejoin:miter;stroke-opacity:1"
       d="m 162.95697,239.30157 c -4.44394,-1.20796 -9.50868,-3.05798 -10.85132,-8.04494 -0.48473,-1.80043 0.31311,-3.1522 1.49673,-4.49021 0.8202,-0.92717 1.7152,-1.84763 2.80638,-2.43219 3.65035,-1.95554 12.74459,2.4563 14.40607,5.98694 0.61211,1.30074 -0.0959,6.17613 -1.12255,7.10949 -1.32943,1.20857 -3.62974,1.7332 -5.23857,2.2451 -2.06958,0.6585 -5.85678,2.55655 -7.48368,0 -0.29946,-0.47059 -0.49891,-0.99782 -0.74836,-1.49674"
       id="path137" />
    <path
       style="fill:none;stroke:#000000;stroke-width:0.264583px;stroke-linecap:butt;stroke-linejoin:miter;stroke-opacity:1"
       d="m 65.669228,255.57856 c 2.556923,0.49892 5.164788,0.78481 7.670765,1.49674 1.595274,0.4532 10.790875,4.16831 13.844794,4.67729 11.099072,1.84985 22.444843,0.9673 33.489433,-0.74836 4.82291,-0.74919 9.58961,-1.82971 14.40607,-2.61929 2.05408,-0.33673 4.1357,-0.51374 6.17403,-0.93546 1.52519,-0.31556 6.19282,-1.81768 8.04495,-2.2451 1.58912,-0.36672 2.69238,-0.70747 1.87092,0.93546"
       id="path139" />
    <path
       style="fill:none;stroke:#000000;stroke-width:0.264583px;stroke-linecap:butt;stroke-linejoin:miter;stroke-opacity:1"
       d="m 145.74453,251.64964 c 1.62864,-8.54509 11.84016,1.06917 9.35459,3.55474 -1.59979,1.59979 -1.44736,0.77781 -3.36766,2.05801 -0.36691,0.24461 -0.64847,0.60064 -0.93546,0.93546 -0.0907,0.10588 -0.21203,0.51138 -0.18709,0.37418 0.14884,-0.81862 0.37419,-1.62146 0.56128,-2.43219"
       id="path141" />
    <path
       style="fill:none;stroke:#000000;stroke-width:0.264583px;stroke-linecap:butt;stroke-linejoin:miter;stroke-opacity:1"
       d="m 110.75835,277.6554 c -0.006,-0.11087 0.18542,-6.25156 -0.93545,-8.04495 -0.30473,-0.48757 -0.79924,0.83419 -1.12255,1.30964 -2.75376,4.04965 -1.9204,2.18997 -2.99347,5.05148 -0.1871,0.49891 -0.34487,1.00982 -0.56128,1.49674 -0.0358,0.0806 -0.12473,0.24945 -0.18709,0.18709 -0.0882,-0.0882 0,-0.24946 0,-0.37419"
       id="path143" />
    <path
       style="fill:none;stroke:#000000;stroke-width:0.264583px;stroke-linecap:butt;stroke-linejoin:miter;stroke-opacity:1"
       d="m 137.88667,226.57933 c -1.43437,-1.62146 -2.48981,-3.6818 -4.30311,-4.86438 -4.37622,-2.85407 -9.60085,-3.86593 -14.59316,-4.86439 -9.11374,-1.82275 -18.49853,-1.26063 -27.502501,0.93546 -1.440156,0.35125 -2.919545,0.5904 -4.303112,1.12255 -3.523445,1.35517 -5.982713,2.86545 -8.793316,5.05148 -0.315206,0.24516 -0.730009,0.40595 -0.935458,0.74836 -0.128344,0.21391 0.525246,0.11156 0.748366,0"
       id="path145" />
    <path
       style="fill:none;stroke:#000000;stroke-width:0.264583px;stroke-linecap:butt;stroke-linejoin:miter;stroke-opacity:1"
       d="m 79.888206,217.59893 c -1.184915,0.99782 -2.630985,1.74994 -3.554743,2.99346 -0.753023,1.01369 -0.899142,2.36056 -1.309645,3.55475 -0.275746,0.80217 -0.551897,1.60702 -0.748366,2.43219 -0.116457,0.48912 -0.237123,0.99644 -0.187093,1.49674 0.135084,1.35082 5.282528,-0.7342 5.986939,-0.93546 0.995275,-0.28437 3.068267,-0.37412 3.741836,-1.49674 0.162509,-0.27085 -0.619858,-0.61986 -0.748367,-0.74837"
       id="path147" />
    <path
       style="fill:none;stroke:#000000;stroke-width:0.264583px;stroke-linecap:butt;stroke-linejoin:miter;stroke-opacity:1"
       d="m 97.474838,203.00576 c 1.184915,-0.93546 2.065612,-3.05456 3.554742,-2.80637 2.10494,0.35082 0.69923,4.94627 0.18709,5.79984 -0.49914,0.8319 -1.372004,1.37201 -2.058005,2.05801 -0.06236,0.0624 0.106026,-0.15235 0.187089,-0.18709 0.362535,-0.15537 0.738616,-0.28385 1.122556,-0.37418 0.67871,-0.1597 1.36929,-0.26544 2.05801,-0.37419 2.33234,-0.36826 0.70073,0.11141 2.99346,-0.74837"
       id="path149" />
    <path
       style="fill:none;stroke:#000000;stroke-width:0.264583px;stroke-linecap:butt;stroke-linejoin:miter;stroke-opacity:1"
       d="m 105.51978,206.37341 c 1.5591,-0.99782 3.1182,-1.99564 4.6773,-2.99346 0.95685,-3.8274 0.0263,-2.83274 1.12255,-3.92893"
       id="path151" />
    <path
       style="fill:none;stroke:#000000;stroke-width:0.264583px;stroke-linecap:butt;stroke-linejoin:miter;stroke-opacity:1"
       d="m 116.18402,204.31541 c 1.30964,-0.74837 2.43087,-2.42135 3.92893,-2.24511 4.49692,0.52905 -4.26758,4.35364 -3.55475,4.11602 1.42708,-0.47569 6.04848,-0.7239 3.92893,2.05801 -1.38798,1.82172 -3.25957,2.93943 -5.23857,3.92893"
       id="path153" />
    <path
       style="fill:none;stroke:#000000;stroke-width:0.264583px;stroke-linecap:butt;stroke-linejoin:miter;stroke-opacity:1"
       d="m 178.67269,249.40453 c 2.12037,0.74837 4.11918,2.41756 6.36112,2.24511 2.95601,-0.22739 5.54299,-2.11917 8.23204,-3.36766 4.27294,-1.98386 5.59531,-7.11735 5.79985,-11.4126 0.13705,-2.87809 -1.83661,-12.4798 -5.05149,-13.28352 -2.72213,-0.68053 -6.59525,-0.32286 -8.60622,1.87092 -0.2467,0.26913 -2.61928,2.69519 -2.61928,3.18056 0,0.26459 0.37418,-0.37418 0.56127,-0.56127"
       id="path155" />
    <path
       style="fill:none;stroke:#000000;stroke-width:0.264583px;stroke-linecap:butt;stroke-linejoin:miter;stroke-opacity:1"
       d="m 184.28544,223.58586 c -1.30964,1.24728 -2.90614,2.25027 -3.92893,3.74184 -0.5395,0.78678 -0.56127,1.85239 -0.56127,2.80638 0,0.62345 3.64833,-0.35261 3.74183,-0.37419 0.75501,-0.17423 1.41753,-0.25089 1.30965,-0.37418 -0.43655,-0.49891 -0.99783,-0.8731 -1.49674,-1.30964"
       id="path157" />
    <path
       style="fill:none;stroke:#000000;stroke-width:0.264583px;stroke-linecap:butt;stroke-linejoin:miter;stroke-opacity:1"
       d="m 208.98156,233.31464 c -9.16441,2.17038 4.95138,-9.25612 1.68383,-11.03842 -0.82124,-0.44795 -1.6106,0.99645 -2.24511,1.68383 -2.01523,2.18317 -4.82494,6.9123 -5.42566,9.91586"
       id="path159" />
    <path
       style="fill:none;stroke:#000000;stroke-width:0.264583px;stroke-linecap:butt;stroke-linejoin:miter;stroke-opacity:1"
       d="m 209.35574,239.11448 c 13.01588,-18.34055 -6.37174,9.34883 8.79332,-13.84479 0.0265,-0.0406 2.05801,-1.62871 2.05801,-2.43219"
       id="path161" />
    <path
       style="fill:none;stroke:#000000;stroke-width:0.264583px;stroke-linecap:butt;stroke-linejoin:miter;stroke-opacity:1"
       d="m 219.4587,231.44372 c 1.24728,-0.93546 2.20395,-2.55006 3.74184,-2.80638 2.1783,-0.36305 0.55705,2.65145 0,3.36765 -0.95529,1.22824 -1.97472,2.23312 -3.18056,3.18056 -0.42184,0.33145 -0.9303,0.55612 -1.30964,0.93547 -0.0882,0.0882 0.25384,0.0328 0.37418,0 0.57079,-0.15567 1.10232,-0.45225 1.68382,-0.56128 1.15319,-0.21622 1.85235,-0.13 2.05801,1.30964 0.24713,1.72991 -1.85984,2.68748 -2.99346,3.36766 -0.34242,0.20544 -1.21783,0.466 -0.93546,0.74836 0.15899,0.159 0.37418,0.24946 0.56127,0.37419"
       id="path163" />
  </g>
</svg>
