<?xml version="1.0" encoding="UTF-8" standalone="no"?>
<!-- Created with Inkscape (http://www.inkscape.org/) -->

<svg
   width="240mm"
   height="120mm"
   viewBox="0 0 240 120"
   version="1.1"
   id="svg8"
   inkscape:version="1.1 (c68e22c387, 2021-05-23)"
   sodipodi:docname="figure2.svg"
   xmlns:inkscape="http://www.inkscape.org/namespaces/inkscape"
   xmlns:sodipodi="http://sodipodi.sourceforge.net/DTD/sodipodi-0.dtd"
   xmlns="http://www.w3.org/2000/svg"
   xmlns:svg="http://www.w3.org/2000/svg"
   xmlns:rdf="http://www.w3.org/1999/02/22-rdf-syntax-ns#"
   xmlns:cc="http://creativecommons.org/ns#"
   xmlns:dc="http://purl.org/dc/elements/1.1/">
  <defs
     id="defs2" />
  <sodipodi:namedview
     id="base"
     pagecolor="#ffffff"
     bordercolor="#666666"
     borderopacity="1.0"
     inkscape:pageopacity="0.0"
     inkscape:pageshadow="2"
     inkscape:zoom="0.99437388"
     inkscape:cx="282.58988"
     inkscape:cy="185.54389"
     inkscape:document-units="mm"
     inkscape:current-layer="layer1"
     showgrid="false"
     showborder="true"
     width="200mm"
     showguides="true"
     inkscape:guide-bbox="true"
     inkscape:window-width="1839"
     inkscape:window-height="1051"
     inkscape:window-x="72"
     inkscape:window-y="-9"
     inkscape:window-maximized="1"
     inkscape:pagecheckerboard="0">
    <inkscape:grid
       type="xygrid"
       id="grid815"
       units="mm"
       spacingx="10"
       spacingy="10"
       empspacing="4"
       dotted="false" />
  </sodipodi:namedview>
  <metadata
     id="metadata5">
    <rdf:RDF>
      <cc:Work
         rdf:about="">
        <dc:format>image/svg+xml</dc:format>
        <dc:type
           rdf:resource="http://purl.org/dc/dcmitype/StillImage" />
        <dc:title />
      </cc:Work>
    </rdf:RDF>
  </metadata>
  <g
     inkscape:label="Layer 1"
     inkscape:groupmode="layer"
     id="layer1"
     transform="translate(0,-177)">
    <path
       style="fill:none;stroke:#000000;stroke-width:0.264583px;stroke-linecap:butt;stroke-linejoin:miter;stroke-opacity:1"
       d="M 29.268835,236.06983 201.15673,235.80375"
       id="path125" />
    <path
       style="fill:none;stroke:#000000;stroke-width:0.264583px;stroke-linecap:butt;stroke-linejoin:miter;stroke-opacity:1"
       d="m 41.508531,233.14295 c -1.42154,0.36752 0.532162,13.80369 0.532162,6.91809"
       id="path160" />
    <path
       style="fill:none;stroke:#000000;stroke-width:0.264583px;stroke-linecap:butt;stroke-linejoin:miter;stroke-opacity:1"
       d="m 70.245207,229.41783 c -0.25359,5.57895 -0.471498,4.53718 0,8.78065 0.06926,0.62332 0.196824,1.23924 0.266081,1.86256 0.01958,0.1763 -0.125431,0.40673 0,0.53216 0.08869,0.0887 0.177387,-0.17739 0.266081,-0.26608"
       id="path162" />
    <path
       style="fill:none;stroke:#000000;stroke-width:0.264583px;stroke-linecap:butt;stroke-linejoin:miter;stroke-opacity:1"
       d="m 99.514042,231.01431 c -0.335774,-6.70191 0.532158,11.76468 0.532158,8.51457"
       id="path164" />
    <path
       style="fill:none;stroke:#000000;stroke-width:0.264583px;stroke-linecap:butt;stroke-linejoin:miter;stroke-opacity:1"
       d="m 133.83841,230.48215 c -0.52676,3.26661 -0.59371,6.56875 -0.26608,9.84497 0.0197,0.19734 0.0678,0.53216 0.26608,0.53216 0.17738,0 0,-0.35477 0,-0.53216"
       id="path166" />
    <path
       style="fill:none;stroke:#000000;stroke-width:0.264583px;stroke-linecap:butt;stroke-linejoin:miter;stroke-opacity:1"
       d="m 156.98739,230.74823 c -1.69055,-5.32315 1.06432,14.10618 1.06432,11.17537"
       id="path168" />
    <path
       style="fill:none;stroke:#000000;stroke-width:0.264583px;stroke-linecap:butt;stroke-linejoin:miter;stroke-opacity:1"
       d="m 178.80598,231.54647 c -0.97075,2.41656 1.59648,5.8616 1.59648,8.51457"
       id="path170" />
    <path
       style="fill:none;stroke:#000000;stroke-width:0.264583px;stroke-linecap:butt;stroke-linejoin:miter;stroke-opacity:1"
       d="m 90.267752,225.3601 h 0.13304"
       id="path182" />
    <path
       style="fill:none;stroke:#000000;stroke-width:0.264583px;stroke-linecap:butt;stroke-linejoin:miter;stroke-opacity:1"
       d="m 90.40079,225.3601 1.130845,-0.9978"
       id="path184" />
    <text
       xml:space="preserve"
       style="font-style:normal;font-weight:normal;font-size:10.5833px;line-height:1.25;font-family:sans-serif;fill:#000000;fill-opacity:1;stroke:none;stroke-width:0.264583"
       x="32.4618"
       y="228.61958"
       id="text2862"><tspan
         sodipodi:role="line"
         id="tspan2860"
         style="stroke-width:0.264583"
         x="32.4618"
         y="228.61958">-N</tspan></text>
    <text
       xml:space="preserve"
       style="font-style:normal;font-weight:normal;font-size:10.5833px;line-height:1.25;font-family:sans-serif;fill:#000000;fill-opacity:1;stroke:none;stroke-width:0.264583"
       x="73.172089"
       y="213.98517"
       id="text4834"><tspan
         sodipodi:role="line"
         id="tspan4832"
         style="stroke-width:0.264583"
         x="73.172089"
         y="213.98517">1-p</tspan></text>
    <text
       xml:space="preserve"
       style="font-style:normal;font-weight:normal;font-size:10.5833px;line-height:1.25;font-family:sans-serif;fill:#000000;fill-opacity:1;stroke:none;stroke-width:0.264583"
       x="122.9291"
       y="214.7834"
       id="text5354"><tspan
         sodipodi:role="line"
         id="tspan5352"
         style="stroke-width:0.264583"
         x="122.9291"
         y="214.7834">P</tspan></text>
    <path
       style="fill:none;stroke:#000000;stroke-width:0.264583px;stroke-linecap:butt;stroke-linejoin:miter;stroke-opacity:1"
       d="m 91.531635,224.3623 c -0.08869,-1.06432 0.117311,-2.19614 -0.266081,-3.19297 -0.09233,-0.24005 -4.445117,-0.79824 -4.789448,-0.79824 -2.210147,0 -4.15168,-0.4965 -6.385928,0 -2.236001,0.49689 -3.520588,2.25837 -5.321607,3.45905 -0.733893,0.48926 -2.126699,0.7963 -2.6608,1.3304 -1.095285,1.09528 -1.252398,2.83357 -1.862564,4.25729"
       id="path5919" />
    <path
       style="fill:none;stroke:#000000;stroke-width:0.264583px;stroke-linecap:butt;stroke-linejoin:miter;stroke-opacity:1"
       d="m 103.77133,224.3623 c 1.3304,-1.15302 2.36446,-2.78591 3.9912,-3.45905 1.15029,-0.47597 2.48133,0.21426 3.72513,0.26608 2.59503,0.10813 5.14233,-0.13827 7.45025,1.33041 1.6104,1.0248 2.84587,2.50048 4.52336,3.45904 1.52623,0.87213 2.86823,1.61901 4.25729,2.6608 0.67999,0.51 0.93554,1.99986 0.53216,1.59649 -0.36302,-0.36302 -1.46653,-2.33284 -1.86256,-2.92689"
       id="path5921" />
    <path
       style="fill:none;stroke:#000000;stroke-width:0.264583px;stroke-linecap:butt;stroke-linejoin:miter;stroke-opacity:1"
       d="m 132.77409,223.56406 c -9.1464,1.70138 4.36838,5.02192 2.92688,7.18417 -0.11001,0.16501 -0.33769,0.30497 -0.53216,0.26608 -0.83832,-0.16767 -1.83972,-1.57953 -3.45905,-1.33041 -1.60603,0.24709 -1.91879,0.82074 -3.19296,1.33041 -1.56318,0.62527 -2.88176,0.53216 -4.52337,0.53216 -0.17738,0 -0.40673,0.12543 -0.53216,0 -1.21772,-1.21772 1.90849,-2.86857 2.92689,-4.25729"
       id="path5923" />
    <path
       style="fill:none;stroke:#000000;stroke-width:0.264583px;stroke-linecap:butt;stroke-linejoin:miter;stroke-opacity:1"
       d="m 70.511288,220.90325 c 2.066324,0.73157 -7.363539,5.35707 -5.321607,7.98241 2.03341,2.61439 13.385676,-0.84641 16.230899,-1.86256"
       id="path5925" />
    <path
       style="fill:none;stroke:#000000;stroke-width:0.264583px;stroke-linecap:butt;stroke-linejoin:miter;stroke-opacity:1"
       d="m 177.74166,224.89446 c -0.0887,-1.86256 -0.13323,-3.72775 -0.26608,-5.58769 -0.31625,-4.42754 -0.26608,0.0169 -0.26608,-2.92688 0,-1.47134 -0.23738,-3.16581 0.79824,-0.26608 0.25488,0.71365 0.6303,1.38969 0.79824,2.12864 0.0663,0.29177 0.79176,8.38478 3.19297,7.18417 1.3467,-0.67335 0.17709,-3.99296 0,-5.05553 -0.16703,-1.00212 0,-2.17824 0,-3.19296 0,-0.55887 -0.3225,-1.86256 0.53216,-1.86256"
       id="path5952" />
  </g>
</svg>
